<svg xmlns="http://www.w3.org/2000/svg" viewBox="0 0 64 64">
  <defs>
    <linearGradient id="g" x1="0" y1="0" x2="64" y2="64" gradientUnits="userSpaceOnUse">
      <stop offset="0" stop-color="#17766d"/>
      <stop offset="1" stop-color="#0f4f4a"/>
    </linearGradient>
  </defs>
  <rect width="64" height="64" rx="16" fill="url(#g)"/>
  <path fill="#ffffff" d="M26 13h12a2 2 0 0 1 2 2v9h9a2 2 0 0 1 2 2v12a2 2 0 0 1-2 2h-9v9a2 2 0 0 1-2 2H26a2 2 0 0 1-2-2v-9h-9a2 2 0 0 1-2-2V26a2 2 0 0 1 2-2h9v-9a2 2 0 0 1 2-2z"/>
</svg>
